<?xml version="1.0" standalone="no"?>
<!DOCTYPE svg PUBLIC "-//W3C//DTD SVG 20010904//EN"
 "http://www.w3.org/TR/2001/REC-SVG-20010904/DTD/svg10.dtd">
<svg version="1.0" xmlns="http://www.w3.org/2000/svg"
 width="803.000000pt" height="803.000000pt" viewBox="0 0 803.000000 803.000000"
 preserveAspectRatio="xMidYMid meet">
<metadata>
Created by potrace 1.14, written by Peter Selinger 2001-2017
</metadata>
<g transform="translate(0.000000,803.000000) scale(0.100000,-0.100000)"
fill="#000000" stroke="none">
<path d="M3880 6994 c-339 -22 -621 -80 -895 -182 -1076 -400 -1825 -1380
-1926 -2523 -16 -185 -6 -514 21 -693 87 -574 340 -1107 732 -1546 326 -366
783 -666 1248 -820 201 -67 184 -69 192 20 4 41 12 179 17 305 5 137 18 287
31 370 39 261 43 305 36 480 -10 240 -23 313 -25 134 -1 -135 -17 -297 -30
-312 -4 -4 -34 35 -66 85 -41 63 -105 140 -201 238 -151 155 -223 254 -272
372 -40 96 -42 112 -17 115 11 1 61 5 110 9 l90 8 -130 13 c-399 39 -749 161
-1066 372 -103 69 -244 179 -237 186 2 2 40 -7 83 -20 83 -26 124 -29 64 -5
-19 7 -88 39 -154 71 -171 81 -224 145 -197 241 13 47 126 229 181 290 114
128 817 728 905 773 65 32 151 35 189 5 14 -11 42 -27 61 -35 26 -11 36 -22
36 -37 0 -12 17 -39 37 -60 l37 -38 -42 -87 c-39 -83 -44 -89 -86 -104 -25 -8
-53 -25 -63 -38 -18 -22 -20 -22 -56 -7 -52 21 -158 12 -212 -19 -65 -37 -91
-70 -155 -195 -61 -119 -200 -426 -200 -441 0 -9 111 -61 117 -55 2 2 -12 13
-32 24 -19 12 -35 25 -35 30 0 14 138 52 229 62 97 11 217 -1 296 -31 64 -24
159 -85 199 -128 17 -17 33 -31 38 -31 4 0 26 13 48 29 31 22 60 32 123 41
109 16 189 3 299 -50 45 -22 94 -40 108 -40 35 0 117 42 168 86 73 62 94 195
48 305 -37 91 -57 112 -123 131 -102 30 -210 148 -182 199 9 17 6 32 -15 78
-35 79 -50 154 -42 215 4 28 11 99 15 158 10 127 42 207 112 276 95 95 217
132 430 131 143 0 181 8 236 51 14 11 30 20 34 20 15 0 10 -108 -6 -147 -8
-20 -14 -38 -12 -39 2 -2 20 8 40 22 42 28 45 23 22 -52 -8 -27 -15 -50 -15
-52 0 -2 9 0 20 3 24 8 25 1 4 -35 -16 -26 -16 -29 8 -61 45 -60 84 -147 102
-231 5 -23 12 -28 35 -28 41 0 74 -43 65 -84 -8 -39 -31 -83 -59 -117 -18 -22
-23 -44 -28 -125 -3 -55 -18 -159 -32 -233 -14 -73 -24 -136 -21 -139 3 -3 6
-1 6 5 0 6 7 28 16 49 l16 39 19 -49 c32 -86 110 -145 192 -146 20 0 37 -4 37
-9 0 -6 -14 -30 -30 -55 -30 -43 -84 -156 -76 -156 3 0 19 26 37 58 18 32 73
98 128 152 80 80 112 103 191 143 102 51 176 73 278 83 l65 7 -7 -26 c-18 -77
-16 -79 19 -18 114 200 275 336 480 406 71 24 185 45 185 33 0 -5 -16 -35 -35
-66 l-36 -57 56 60 c87 93 87 84 -13 161 -48 37 -139 114 -202 170 -158 141
-248 213 -295 235 -92 43 -230 12 -279 -62 -15 -21 -27 -39 -29 -40 -1 0 -39
-2 -85 -5 -72 -4 -89 -2 -122 17 -20 12 -48 39 -60 61 -19 34 -21 49 -17 121
7 110 20 163 48 193 36 38 136 84 183 84 71 0 177 -28 266 -70 61 -28 132 -50
250 -75 209 -46 463 -110 560 -142 93 -31 294 -129 376 -183 220 -144 210
-255 -48 -525 -65 -68 -118 -126 -118 -129 0 -3 60 41 133 98 72 57 133 103
135 101 7 -7 -100 -206 -155 -290 -248 -375 -585 -646 -1005 -809 -62 -24
-126 -49 -143 -55 -95 -35 195 29 308 68 l59 20 -7 -42 c-14 -81 -64 -264 -94
-340 -96 -240 -220 -431 -441 -679 l-65 -72 63 49 c34 28 76 61 92 74 l30 24
0 -24 c0 -80 -65 -403 -124 -610 -19 -68 -42 -159 -50 -202 -38 -183 -42 -497
-7 -497 31 0 311 100 423 151 926 424 1566 1268 1718 2267 27 176 37 507 21
691 -44 492 -206 958 -477 1371 -478 728 -1271 1217 -2130 1314 -137 16 -382
26 -474 20z"/>
</g>
</svg>
